<mxfile host="app.diagrams.net" agent="Mozilla/5.0 (Windows NT 10.0; Win64; x64) AppleWebKit/537.36 (KHTML, like Gecko) Chrome/130.0.0.0 Safari/537.36" version="24.8.3">
  <diagram name="Pagina-1" id="-TCsVN3VJ5PjOl-y6puq">
    <mxGraphModel dx="750" dy="446" grid="1" gridSize="10" guides="1" tooltips="1" connect="1" arrows="1" fold="1" page="1" pageScale="1" pageWidth="827" pageHeight="1169" math="0" shadow="0">
      <root>
        <mxCell id="0" />
        <mxCell id="1" parent="0" />
        <mxCell id="ARYgBKp8zTcD2eqx7UkT-9" style="edgeStyle=orthogonalEdgeStyle;rounded=0;orthogonalLoop=1;jettySize=auto;html=1;exitX=1;exitY=0.5;exitDx=0;exitDy=0;entryX=0;entryY=0.5;entryDx=0;entryDy=0;endArrow=none;endFill=0;" parent="1" source="ARYgBKp8zTcD2eqx7UkT-2" target="ARYgBKp8zTcD2eqx7UkT-4" edge="1">
          <mxGeometry relative="1" as="geometry" />
        </mxCell>
        <mxCell id="ARYgBKp8zTcD2eqx7UkT-2" value="PILOTA" style="rounded=0;whiteSpace=wrap;html=1;" parent="1" vertex="1">
          <mxGeometry x="120" y="650" width="120" height="60" as="geometry" />
        </mxCell>
        <mxCell id="ARYgBKp8zTcD2eqx7UkT-3" value="GARE" style="rounded=0;whiteSpace=wrap;html=1;" parent="1" vertex="1">
          <mxGeometry x="510" y="650" width="120" height="60" as="geometry" />
        </mxCell>
        <mxCell id="ARYgBKp8zTcD2eqx7UkT-6" style="edgeStyle=orthogonalEdgeStyle;rounded=0;orthogonalLoop=1;jettySize=auto;html=1;exitX=1;exitY=0.5;exitDx=0;exitDy=0;entryX=0;entryY=0.5;entryDx=0;entryDy=0;endArrow=none;endFill=0;" parent="1" source="ARYgBKp8zTcD2eqx7UkT-4" target="ARYgBKp8zTcD2eqx7UkT-3" edge="1">
          <mxGeometry relative="1" as="geometry" />
        </mxCell>
        <mxCell id="ARYgBKp8zTcD2eqx7UkT-4" value="ISCRIZIONE" style="rhombus;whiteSpace=wrap;html=1;" parent="1" vertex="1">
          <mxGeometry x="333.5" y="640" width="80" height="80" as="geometry" />
        </mxCell>
        <mxCell id="ARYgBKp8zTcD2eqx7UkT-10" value="PILOTA" style="swimlane;childLayout=stackLayout;horizontal=1;startSize=50;horizontalStack=0;rounded=1;fontSize=14;fontStyle=0;strokeWidth=2;resizeParent=0;resizeLast=1;shadow=0;dashed=0;align=center;arcSize=4;whiteSpace=wrap;html=1;" parent="1" vertex="1">
          <mxGeometry x="100" y="464" width="160" height="120" as="geometry" />
        </mxCell>
        <mxCell id="ARYgBKp8zTcD2eqx7UkT-11" value="Nome&lt;div&gt;Numero ID (PK)&lt;/div&gt;&lt;div&gt;Squadra&lt;/div&gt;" style="align=left;strokeColor=none;fillColor=none;spacingLeft=4;fontSize=12;verticalAlign=top;resizable=0;rotatable=0;part=1;html=1;" parent="ARYgBKp8zTcD2eqx7UkT-10" vertex="1">
          <mxGeometry y="50" width="160" height="70" as="geometry" />
        </mxCell>
        <mxCell id="ARYgBKp8zTcD2eqx7UkT-13" value="" style="edgeStyle=entityRelationEdgeStyle;fontSize=12;html=1;endArrow=ERoneToMany;rounded=0;exitX=0.998;exitY=0.178;exitDx=0;exitDy=0;exitPerimeter=0;endSize=12;entryX=-0.011;entryY=0.12;entryDx=0;entryDy=0;entryPerimeter=0;endFill=0;startArrow=ERzeroToOne;startFill=0;strokeWidth=1;targetPerimeterSpacing=0;startSize=12;" parent="1" source="ARYgBKp8zTcD2eqx7UkT-11" target="ARYgBKp8zTcD2eqx7UkT-15" edge="1">
          <mxGeometry width="100" height="100" relative="1" as="geometry">
            <mxPoint x="270.0000000000001" y="549.0199999999999" as="sourcePoint" />
            <mxPoint x="490" y="498.99" as="targetPoint" />
            <Array as="points">
              <mxPoint x="270" y="538.99" />
            </Array>
          </mxGeometry>
        </mxCell>
        <mxCell id="ARYgBKp8zTcD2eqx7UkT-18" value="Partecipazione&lt;div&gt;&lt;br&gt;&lt;div&gt;Punti&lt;/div&gt;&lt;div&gt;Posizione&lt;/div&gt;&lt;/div&gt;" style="edgeLabel;html=1;align=center;verticalAlign=middle;resizable=0;points=[];" parent="ARYgBKp8zTcD2eqx7UkT-13" vertex="1" connectable="0">
          <mxGeometry x="-0.0849" y="-3" relative="1" as="geometry">
            <mxPoint x="9" y="-8" as="offset" />
          </mxGeometry>
        </mxCell>
        <mxCell id="ARYgBKp8zTcD2eqx7UkT-14" value="GARE" style="swimlane;childLayout=stackLayout;horizontal=1;startSize=50;horizontalStack=0;rounded=1;fontSize=14;fontStyle=0;strokeWidth=2;resizeParent=0;resizeLast=1;shadow=0;dashed=0;align=center;arcSize=4;whiteSpace=wrap;html=1;" parent="1" vertex="1">
          <mxGeometry x="490" y="440" width="160" height="120" as="geometry" />
        </mxCell>
        <mxCell id="ARYgBKp8zTcD2eqx7UkT-15" value="Data&lt;div&gt;Luogo&lt;br&gt;Nome&lt;/div&gt;" style="align=left;strokeColor=none;fillColor=none;spacingLeft=4;fontSize=12;verticalAlign=top;resizable=0;rotatable=0;part=1;html=1;" parent="ARYgBKp8zTcD2eqx7UkT-14" vertex="1">
          <mxGeometry y="50" width="160" height="70" as="geometry" />
        </mxCell>
        <mxCell id="ARYgBKp8zTcD2eqx7UkT-16" value="(0,N)" style="text;html=1;align=center;verticalAlign=middle;resizable=0;points=[];autosize=1;strokeColor=none;fillColor=none;" parent="1" vertex="1">
          <mxGeometry x="260" y="550" width="50" height="30" as="geometry" />
        </mxCell>
        <mxCell id="ARYgBKp8zTcD2eqx7UkT-17" value="(1,1)" style="text;html=1;align=center;verticalAlign=middle;resizable=0;points=[];autosize=1;strokeColor=none;fillColor=none;" parent="1" vertex="1">
          <mxGeometry x="440" y="509" width="50" height="30" as="geometry" />
        </mxCell>
        <mxCell id="GFRPdCCd2IYxugpYJdg1-2" value="" style="endArrow=circle;html=1;rounded=0;endFill=0;exitX=1;exitY=0;exitDx=0;exitDy=0;" edge="1" parent="1" source="ARYgBKp8zTcD2eqx7UkT-4">
          <mxGeometry width="50" height="50" relative="1" as="geometry">
            <mxPoint x="400" y="660" as="sourcePoint" />
            <mxPoint x="430" y="630" as="targetPoint" />
          </mxGeometry>
        </mxCell>
      </root>
    </mxGraphModel>
  </diagram>
</mxfile>
